<svg xmlns="http://www.w3.org/2000/svg" xmlns:xlink="http://www.w3.org/1999/xlink" width="500" zoomAndPan="magnify" viewBox="0 0 375 374.999991" height="500" preserveAspectRatio="xMidYMid meet" version="1.0"><defs><g/></defs><g fill="#d4af37" fill-opacity="1"><g transform="translate(16.375992, 181.233562)"><g><path d="M 23.453125 -6.421875 L 23.453125 -21.125 C 23.453125 -22.195312 23.257812 -22.914062 22.875 -23.28125 C 22.488281 -23.65625 21.785156 -23.851562 20.765625 -23.875 L 19.875 -23.875 L 19.875 -24.515625 L 28.90625 -24.515625 L 28.90625 -23.875 L 28.15625 -23.875 C 27.207031 -23.875 26.53125 -23.8125 26.125 -23.6875 C 25.71875 -23.570312 25.4375 -23.296875 25.28125 -22.859375 C 25.125 -22.421875 25.046875 -21.703125 25.046875 -20.703125 L 25.046875 0.28125 L 24.546875 0.28125 L 7.03125 -19.453125 L 7.03125 -4.140625 C 7.03125 -2.804688 7.296875 -1.890625 7.828125 -1.390625 C 8.367188 -0.890625 9.289062 -0.640625 10.59375 -0.640625 L 10.59375 0 L 1.75 0 L 1.75 -0.640625 L 1.96875 -0.640625 C 3.101562 -0.640625 3.96875 -0.847656 4.5625 -1.265625 C 5.15625 -1.679688 5.453125 -2.445312 5.453125 -3.5625 L 5.453125 -21.015625 C 4.835938 -22.066406 4.132812 -22.804688 3.34375 -23.234375 C 2.5625 -23.660156 1.601562 -23.875 0.46875 -23.875 L 0.46875 -24.515625 L 7.59375 -24.515625 Z M 23.453125 -6.421875 "/></g></g></g><g fill="#d4af37" fill-opacity="1"><g transform="translate(45.743566, 181.233562)"><g><path d="M 15.625 -25.046875 C 16.914062 -25.046875 18.039062 -24.925781 19 -24.6875 C 19.96875 -24.457031 20.9375 -24.148438 21.90625 -23.765625 C 22.601562 -23.503906 23.019531 -23.375 23.15625 -23.375 C 23.445312 -23.375 23.695312 -23.515625 23.90625 -23.796875 C 24.125 -24.085938 24.253906 -24.503906 24.296875 -25.046875 L 24.984375 -25.046875 L 25.625 -17.234375 L 24.984375 -17.234375 C 24.648438 -18.585938 24.003906 -19.753906 23.046875 -20.734375 C 22.097656 -21.710938 20.992188 -22.453125 19.734375 -22.953125 C 18.472656 -23.453125 17.1875 -23.703125 15.875 -23.703125 C 14.09375 -23.703125 12.453125 -23.253906 10.953125 -22.359375 C 9.453125 -21.460938 8.25 -20.148438 7.34375 -18.421875 C 6.445312 -16.703125 6 -14.640625 6 -12.234375 C 6 -10.023438 6.46875 -8.050781 7.40625 -6.3125 C 8.34375 -4.582031 9.613281 -3.234375 11.21875 -2.265625 C 12.820312 -1.304688 14.566406 -0.828125 16.453125 -0.828125 C 17.453125 -0.828125 18.378906 -0.960938 19.234375 -1.234375 C 20.085938 -1.503906 20.992188 -1.960938 21.953125 -2.609375 L 21.953125 -9.671875 C 21.953125 -10.710938 21.675781 -11.441406 21.125 -11.859375 C 20.582031 -12.273438 19.710938 -12.5 18.515625 -12.53125 L 18.515625 -13.171875 L 29.046875 -13.171875 L 29.046875 -12.53125 C 28.171875 -12.457031 27.507812 -12.320312 27.0625 -12.125 C 26.625 -11.9375 26.300781 -11.601562 26.09375 -11.125 C 25.894531 -10.65625 25.796875 -9.945312 25.796875 -9 L 25.796875 -2.03125 C 24.066406 -1.082031 22.519531 -0.414062 21.15625 -0.03125 C 19.800781 0.34375 18.140625 0.53125 16.171875 0.53125 C 13.078125 0.53125 10.421875 -0.0625 8.203125 -1.25 C 5.992188 -2.4375 4.328125 -3.953125 3.203125 -5.796875 C 2.085938 -7.640625 1.53125 -9.535156 1.53125 -11.484375 C 1.53125 -13.960938 2.15625 -16.234375 3.40625 -18.296875 C 4.65625 -20.367188 6.351562 -22.007812 8.5 -23.21875 C 10.65625 -24.4375 13.03125 -25.046875 15.625 -25.046875 Z M 15.625 -25.046875 "/></g></g></g><g fill="#d4af37" fill-opacity="1"><g transform="translate(75.111141, 181.233562)"><g><path d="M 12.09375 -23.875 C 11.289062 -23.851562 10.65625 -23.765625 10.1875 -23.609375 C 9.726562 -23.453125 9.363281 -23.164062 9.09375 -22.75 C 8.832031 -22.332031 8.703125 -21.71875 8.703125 -20.90625 L 8.703125 -7.390625 C 8.703125 -5.554688 9.257812 -4.03125 10.375 -2.8125 C 11.5 -1.601562 13.179688 -1 15.421875 -1 C 18.054688 -1 20.039062 -1.648438 21.375 -2.953125 C 22.707031 -4.265625 23.375 -6.21875 23.375 -8.8125 L 23.375 -20.984375 C 23.375 -22.054688 23.09375 -22.804688 22.53125 -23.234375 C 21.976562 -23.660156 21.15625 -23.875 20.0625 -23.875 L 19.703125 -23.875 L 19.703125 -24.515625 L 28.6875 -24.515625 L 28.6875 -23.875 C 27.789062 -23.875 27.070312 -23.800781 26.53125 -23.65625 C 26 -23.519531 25.59375 -23.234375 25.3125 -22.796875 C 25.039062 -22.367188 24.90625 -21.738281 24.90625 -20.90625 L 24.90625 -8.390625 C 24.90625 -6.796875 24.546875 -5.328125 23.828125 -3.984375 C 23.117188 -2.640625 22.03125 -1.550781 20.5625 -0.71875 C 19.101562 0.113281 17.28125 0.53125 15.09375 0.53125 C 12.59375 0.53125 10.582031 0.125 9.0625 -0.6875 C 7.539062 -1.507812 6.457031 -2.554688 5.8125 -3.828125 C 5.175781 -5.109375 4.859375 -6.484375 4.859375 -7.953125 L 4.859375 -20.015625 C 4.859375 -21.066406 4.757812 -21.859375 4.5625 -22.390625 C 4.375 -22.929688 4.035156 -23.3125 3.546875 -23.53125 C 3.054688 -23.757812 2.335938 -23.875 1.390625 -23.875 L 1.140625 -23.875 L 1.140625 -24.515625 L 12.09375 -24.515625 Z M 12.09375 -23.875 "/></g></g></g><g fill="#d4af37" fill-opacity="1"><g transform="translate(104.478716, 181.233562)"><g><path d="M 11.3125 -23.875 C 10.238281 -23.875 9.503906 -23.789062 9.109375 -23.625 C 8.722656 -23.457031 8.53125 -23.171875 8.53125 -22.765625 C 8.53125 -22.296875 8.875 -21.523438 9.5625 -20.453125 L 15.0625 -12.171875 L 19.484375 -19.09375 C 20.742188 -21.039062 21.375 -22.289062 21.375 -22.84375 C 21.375 -23.25 21.164062 -23.519531 20.75 -23.65625 C 20.332031 -23.800781 19.6875 -23.875 18.8125 -23.875 L 18.8125 -24.515625 L 27.09375 -24.515625 L 27.09375 -23.875 C 25.894531 -23.875 24.894531 -23.535156 24.09375 -22.859375 C 23.300781 -22.179688 22.347656 -20.953125 21.234375 -19.171875 L 15.734375 -10.53125 L 15.734375 -3.5625 C 15.734375 -2.726562 15.867188 -2.109375 16.140625 -1.703125 C 16.421875 -1.304688 16.816406 -1.035156 17.328125 -0.890625 C 17.835938 -0.742188 18.554688 -0.660156 19.484375 -0.640625 L 19.484375 0 L 8.09375 0 L 8.09375 -0.640625 L 8.421875 -0.640625 C 9.703125 -0.640625 10.597656 -0.863281 11.109375 -1.3125 C 11.628906 -1.769531 11.890625 -2.640625 11.890625 -3.921875 L 11.890625 -10.28125 L 4.390625 -21.40625 C 3.890625 -22.144531 3.472656 -22.679688 3.140625 -23.015625 C 2.804688 -23.347656 2.441406 -23.570312 2.046875 -23.6875 C 1.660156 -23.8125 1.117188 -23.875 0.421875 -23.875 L 0.421875 -24.515625 L 11.3125 -24.515625 Z M 11.3125 -23.875 "/></g></g></g><g fill="#d4af37" fill-opacity="1"><g transform="translate(131.990745, 181.233562)"><g><path d="M 17.703125 0 L 3.46875 0 L 3.46875 -25.484375 L 17.703125 -25.484375 L 17.703125 -22.65625 L 6.671875 -22.65625 L 6.671875 -14.703125 L 17.0625 -14.703125 L 17.0625 -11.921875 L 6.671875 -11.921875 L 6.671875 -2.8125 L 17.703125 -2.8125 Z M 16.203125 -37.40625 C 16.109375 -36.28125 15.773438 -35.351562 15.203125 -34.625 C 14.640625 -33.90625 13.878906 -33.546875 12.921875 -33.546875 C 12.347656 -33.546875 11.796875 -33.679688 11.265625 -33.953125 C 10.734375 -34.234375 10.207031 -34.507812 9.6875 -34.78125 C 9.175781 -35.050781 8.707031 -35.1875 8.28125 -35.1875 C 7.8125 -35.1875 7.457031 -35.050781 7.21875 -34.78125 C 6.976562 -34.507812 6.773438 -34.085938 6.609375 -33.515625 L 5 -33.515625 C 5.125 -34.609375 5.460938 -35.519531 6.015625 -36.25 C 6.578125 -36.988281 7.332031 -37.359375 8.28125 -37.359375 C 8.851562 -37.359375 9.414062 -37.222656 9.96875 -36.953125 C 10.53125 -36.679688 11.066406 -36.40625 11.578125 -36.125 C 12.097656 -35.851562 12.5625 -35.71875 12.96875 -35.71875 C 13.414062 -35.71875 13.765625 -35.851562 14.015625 -36.125 C 14.265625 -36.40625 14.460938 -36.832031 14.609375 -37.40625 Z M 12.171875 -32.4375 C 12.722656 -31.632812 13.34375 -30.847656 14.03125 -30.078125 C 14.71875 -29.316406 15.375 -28.59375 16 -27.90625 L 16 -27.515625 L 14.28125 -27.515625 C 13.070312 -28.296875 11.835938 -29.25 10.578125 -30.375 C 9.953125 -29.820312 9.320312 -29.300781 8.6875 -28.8125 C 8.0625 -28.332031 7.453125 -27.898438 6.859375 -27.515625 L 5.140625 -27.515625 L 5.140625 -27.90625 C 5.734375 -28.59375 6.378906 -29.316406 7.078125 -30.078125 C 7.785156 -30.847656 8.414062 -31.632812 8.96875 -32.4375 Z M 12.171875 -32.4375 "/></g></g></g><g fill="#d4af37" fill-opacity="1"><g transform="translate(151.830805, 181.233562)"><g><path d="M 23.453125 -6.421875 L 23.453125 -21.125 C 23.453125 -22.195312 23.257812 -22.914062 22.875 -23.28125 C 22.488281 -23.65625 21.785156 -23.851562 20.765625 -23.875 L 19.875 -23.875 L 19.875 -24.515625 L 28.90625 -24.515625 L 28.90625 -23.875 L 28.15625 -23.875 C 27.207031 -23.875 26.53125 -23.8125 26.125 -23.6875 C 25.71875 -23.570312 25.4375 -23.296875 25.28125 -22.859375 C 25.125 -22.421875 25.046875 -21.703125 25.046875 -20.703125 L 25.046875 0.28125 L 24.546875 0.28125 L 7.03125 -19.453125 L 7.03125 -4.140625 C 7.03125 -2.804688 7.296875 -1.890625 7.828125 -1.390625 C 8.367188 -0.890625 9.289062 -0.640625 10.59375 -0.640625 L 10.59375 0 L 1.75 0 L 1.75 -0.640625 L 1.96875 -0.640625 C 3.101562 -0.640625 3.96875 -0.847656 4.5625 -1.265625 C 5.15625 -1.679688 5.453125 -2.445312 5.453125 -3.5625 L 5.453125 -21.015625 C 4.835938 -22.066406 4.132812 -22.804688 3.34375 -23.234375 C 2.5625 -23.660156 1.601562 -23.875 0.46875 -23.875 L 0.46875 -24.515625 L 7.59375 -24.515625 Z M 23.453125 -6.421875 "/></g></g></g><g fill="#d4af37" fill-opacity="1"><g transform="translate(181.19838, 181.233562)"><g/></g></g><g fill="#d4af37" fill-opacity="1"><g transform="translate(190.119278, 181.233562)"><g><path d="M 22.90625 -18.953125 L 22.234375 -18.953125 C 21.898438 -21.617188 20.460938 -22.953125 17.921875 -22.953125 L 13.8125 -22.953125 L 13.8125 -3.359375 C 13.8125 -2.285156 14.117188 -1.5625 14.734375 -1.1875 C 15.359375 -0.820312 16.238281 -0.640625 17.375 -0.640625 L 17.375 0 L 6.390625 0 L 6.390625 -0.640625 C 7.648438 -0.640625 8.554688 -0.851562 9.109375 -1.28125 C 9.671875 -1.707031 9.953125 -2.484375 9.953125 -3.609375 L 9.953125 -22.953125 L 5.609375 -22.953125 C 4.484375 -22.953125 3.546875 -22.625 2.796875 -21.96875 C 2.046875 -21.3125 1.625 -20.304688 1.53125 -18.953125 L 0.890625 -18.953125 L 1.078125 -24.515625 L 22.734375 -24.515625 Z M 22.90625 -18.953125 "/></g></g></g><g fill="#d4af37" fill-opacity="1"><g transform="translate(213.920226, 181.233562)"><g><path d="M 19.453125 0 L 16.375 -7.890625 L 6.28125 -7.890625 L 3.25 0 L 0 0 L 9.953125 -25.59375 L 12.84375 -25.59375 L 22.765625 0 Z M 15.421875 -10.734375 L 12.5625 -18.453125 C 12.488281 -18.640625 12.367188 -18.984375 12.203125 -19.484375 C 12.035156 -19.984375 11.875 -20.5 11.71875 -21.03125 C 11.5625 -21.570312 11.4375 -21.984375 11.34375 -22.265625 C 11.15625 -21.523438 10.957031 -20.804688 10.75 -20.109375 C 10.550781 -19.410156 10.382812 -18.859375 10.25 -18.453125 L 7.359375 -10.734375 Z M 15.375 -31.328125 C 15.820312 -31.929688 16.207031 -32.484375 16.53125 -32.984375 C 16.851562 -33.484375 17.207031 -34.113281 17.59375 -34.875 L 20.734375 -34.875 L 20.734375 -34.515625 C 20.203125 -33.828125 19.628906 -33.175781 19.015625 -32.5625 C 18.398438 -31.957031 17.78125 -31.40625 17.15625 -30.90625 L 15.375 -30.90625 Z M 16.765625 -27.515625 L 15.015625 -27.515625 C 14.421875 -27.898438 13.8125 -28.34375 13.1875 -28.84375 C 12.570312 -29.34375 11.957031 -29.863281 11.34375 -30.40625 C 10.726562 -29.863281 10.109375 -29.34375 9.484375 -28.84375 C 8.867188 -28.34375 8.265625 -27.898438 7.671875 -27.515625 L 5.921875 -27.515625 L 5.921875 -27.953125 C 6.515625 -28.609375 7.15625 -29.328125 7.84375 -30.109375 C 8.53125 -30.898438 9.148438 -31.703125 9.703125 -32.515625 L 12.984375 -32.515625 C 13.535156 -31.703125 14.148438 -30.898438 14.828125 -30.109375 C 15.503906 -29.328125 16.148438 -28.609375 16.765625 -27.953125 Z M 16.765625 -27.515625 "/></g></g></g><g fill="#d4af37" fill-opacity="1"><g transform="translate(236.722032, 181.233562)"><g><path d="M 23.453125 -6.421875 L 23.453125 -21.125 C 23.453125 -22.195312 23.257812 -22.914062 22.875 -23.28125 C 22.488281 -23.65625 21.785156 -23.851562 20.765625 -23.875 L 19.875 -23.875 L 19.875 -24.515625 L 28.90625 -24.515625 L 28.90625 -23.875 L 28.15625 -23.875 C 27.207031 -23.875 26.53125 -23.8125 26.125 -23.6875 C 25.71875 -23.570312 25.4375 -23.296875 25.28125 -22.859375 C 25.125 -22.421875 25.046875 -21.703125 25.046875 -20.703125 L 25.046875 0.28125 L 24.546875 0.28125 L 7.03125 -19.453125 L 7.03125 -4.140625 C 7.03125 -2.804688 7.296875 -1.890625 7.828125 -1.390625 C 8.367188 -0.890625 9.289062 -0.640625 10.59375 -0.640625 L 10.59375 0 L 1.75 0 L 1.75 -0.640625 L 1.96875 -0.640625 C 3.101562 -0.640625 3.96875 -0.847656 4.5625 -1.265625 C 5.15625 -1.679688 5.453125 -2.445312 5.453125 -3.5625 L 5.453125 -21.015625 C 4.835938 -22.066406 4.132812 -22.804688 3.34375 -23.234375 C 2.5625 -23.660156 1.601562 -23.875 0.46875 -23.875 L 0.46875 -24.515625 L 7.59375 -24.515625 Z M 23.453125 -6.421875 "/></g></g></g><g fill="#d4af37" fill-opacity="1"><g transform="translate(266.089607, 181.233562)"><g/></g></g><g fill="#d4af37" fill-opacity="1"><g transform="translate(275.010505, 181.233562)"><g><path d="M 12.484375 -23.875 C 11.253906 -23.875 10.367188 -23.675781 9.828125 -23.28125 C 9.296875 -22.894531 9.03125 -22.101562 9.03125 -20.90625 L 9.03125 -3 C 9.03125 -2.5 9.128906 -2.140625 9.328125 -1.921875 C 9.535156 -1.710938 9.875 -1.609375 10.34375 -1.609375 L 15.671875 -1.609375 C 16.898438 -1.609375 17.921875 -1.765625 18.734375 -2.078125 C 19.546875 -2.398438 20.242188 -2.925781 20.828125 -3.65625 C 21.410156 -4.382812 21.972656 -5.414062 22.515625 -6.75 L 23.125 -6.53125 L 21.0625 0 L 1.5 0 L 1.5 -0.640625 L 1.75 -0.640625 C 2.957031 -0.640625 3.828125 -0.851562 4.359375 -1.28125 C 4.898438 -1.707031 5.171875 -2.484375 5.171875 -3.609375 L 5.171875 -20.953125 C 5.171875 -22.046875 4.890625 -22.804688 4.328125 -23.234375 C 3.773438 -23.660156 2.90625 -23.875 1.71875 -23.875 L 1.5 -23.875 L 1.5 -24.515625 L 12.484375 -24.515625 Z M 12.484375 -23.875 "/></g></g></g><g fill="#d4af37" fill-opacity="1"><g transform="translate(298.811446, 181.233562)"><g><path d="M 25.6875 -12.78125 C 25.6875 -10.132812 25.238281 -7.828125 24.34375 -5.859375 C 23.457031 -3.898438 22.140625 -2.375 20.390625 -1.28125 C 18.640625 -0.1875 16.492188 0.359375 13.953125 0.359375 C 11.316406 0.359375 9.125 -0.1875 7.375 -1.28125 C 5.625 -2.375 4.316406 -3.90625 3.453125 -5.875 C 2.597656 -7.851562 2.171875 -10.164062 2.171875 -12.8125 C 2.171875 -15.40625 2.597656 -17.679688 3.453125 -19.640625 C 4.316406 -21.609375 5.625 -23.140625 7.375 -24.234375 C 9.125 -25.328125 11.328125 -25.875 13.984375 -25.875 C 16.535156 -25.875 18.675781 -25.332031 20.40625 -24.25 C 22.144531 -23.164062 23.457031 -21.640625 24.34375 -19.671875 C 25.238281 -17.710938 25.6875 -15.414062 25.6875 -12.78125 Z M 5.5625 -12.78125 C 5.5625 -9.5625 6.238281 -7.03125 7.59375 -5.1875 C 8.957031 -3.34375 11.078125 -2.421875 13.953125 -2.421875 C 16.828125 -2.421875 18.9375 -3.34375 20.28125 -5.1875 C 21.625 -7.03125 22.296875 -9.5625 22.296875 -12.78125 C 22.296875 -15.988281 21.628906 -18.5 20.296875 -20.3125 C 18.972656 -22.132812 16.867188 -23.046875 13.984375 -23.046875 C 11.085938 -23.046875 8.957031 -22.132812 7.59375 -20.3125 C 6.238281 -18.5 5.5625 -15.988281 5.5625 -12.78125 Z M 13.953125 6.28125 C 13.453125 6.28125 13.015625 6.113281 12.640625 5.78125 C 12.273438 5.445312 12.09375 4.945312 12.09375 4.28125 C 12.09375 3.59375 12.273438 3.085938 12.640625 2.765625 C 13.015625 2.441406 13.453125 2.28125 13.953125 2.28125 C 14.453125 2.28125 14.882812 2.441406 15.25 2.765625 C 15.625 3.085938 15.8125 3.59375 15.8125 4.28125 C 15.8125 4.945312 15.625 5.445312 15.25 5.78125 C 14.882812 6.113281 14.453125 6.28125 13.953125 6.28125 Z M 15.59375 -33.703125 C 15.875 -33.171875 16.28125 -32.578125 16.8125 -31.921875 C 17.351562 -31.273438 17.914062 -30.632812 18.5 -30 C 19.082031 -29.375 19.597656 -28.832031 20.046875 -28.375 L 20.046875 -27.984375 L 17.84375 -27.984375 C 17.21875 -28.367188 16.570312 -28.835938 15.90625 -29.390625 C 15.238281 -29.953125 14.585938 -30.554688 13.953125 -31.203125 C 13.304688 -30.554688 12.660156 -29.953125 12.015625 -29.390625 C 11.378906 -28.835938 10.75 -28.367188 10.125 -27.984375 L 7.984375 -27.984375 L 7.984375 -28.375 C 8.410156 -28.832031 8.910156 -29.375 9.484375 -30 C 10.054688 -30.632812 10.601562 -31.273438 11.125 -31.921875 C 11.65625 -32.578125 12.070312 -33.171875 12.375 -33.703125 Z M 15.59375 -33.703125 "/></g></g></g><g fill="#d4af37" fill-opacity="1"><g transform="translate(326.680326, 181.233562)"><g><path d="M 14.875 -25.046875 C 16.070312 -25.046875 17.101562 -24.929688 17.96875 -24.703125 C 18.832031 -24.484375 19.671875 -24.195312 20.484375 -23.84375 C 21.148438 -23.582031 21.578125 -23.453125 21.765625 -23.453125 C 22.054688 -23.453125 22.332031 -23.597656 22.59375 -23.890625 C 22.851562 -24.191406 23.03125 -24.578125 23.125 -25.046875 L 23.734375 -25.046875 L 24.34375 -16.765625 L 23.734375 -16.765625 C 23.515625 -18.222656 22.984375 -19.472656 22.140625 -20.515625 C 21.296875 -21.566406 20.257812 -22.359375 19.03125 -22.890625 C 17.8125 -23.429688 16.523438 -23.703125 15.171875 -23.703125 C 12.378906 -23.703125 10.144531 -22.707031 8.46875 -20.71875 C 6.789062 -18.726562 5.953125 -15.722656 5.953125 -11.703125 C 5.953125 -9.328125 6.410156 -7.332031 7.328125 -5.71875 C 8.242188 -4.113281 9.445312 -2.925781 10.9375 -2.15625 C 12.425781 -1.382812 14.015625 -1 15.703125 -1 C 17.441406 -1 19.09375 -1.4375 20.65625 -2.3125 C 22.226562 -3.195312 23.457031 -4.378906 24.34375 -5.859375 L 24.875 -5.5 C 22.519531 -1.476562 19.046875 0.53125 14.453125 0.53125 C 12.078125 0.53125 9.898438 -0.0195312 7.921875 -1.125 C 5.941406 -2.226562 4.375 -3.734375 3.21875 -5.640625 C 2.070312 -7.546875 1.5 -9.640625 1.5 -11.921875 C 1.5 -14.328125 2.09375 -16.535156 3.28125 -18.546875 C 4.46875 -20.554688 6.082031 -22.140625 8.125 -23.296875 C 10.175781 -24.460938 12.425781 -25.046875 14.875 -25.046875 Z M 14.875 -25.046875 "/></g></g></g><g fill="#d4af37" fill-opacity="1"><g transform="translate(352.340817, 181.233562)"><g/></g></g><g fill="#d4af37" fill-opacity="1"><g transform="translate(103.402446, 219.329664)"><g><path d="M 3.125 0 L 3.125 -7.703125 L 0.140625 -7.703125 L 0.140625 -8.546875 L 7.09375 -8.546875 L 7.09375 -7.703125 L 4.109375 -7.703125 L 4.109375 0 Z M 3.125 0 "/></g></g></g><g fill="#d4af37" fill-opacity="1"><g transform="translate(120.238638, 219.329664)"><g><path d="M 1.0625 0 L 1.0625 -8.546875 L 6.453125 -8.546875 L 6.453125 -7.734375 L 2.03125 -7.734375 L 2.03125 -4.75 L 6.21875 -4.75 L 6.21875 -3.921875 L 2.03125 -3.921875 L 2.03125 -0.8125 L 6.453125 -0.8125 L 6.453125 0 Z M 1.0625 0 "/></g></g></g><g fill="#d4af37" fill-opacity="1"><g transform="translate(136.894826, 219.329664)"><g><path d="M 4.703125 0.09375 C 3.890625 0.09375 3.1875 -0.078125 2.59375 -0.421875 C 2 -0.773438 1.539062 -1.28125 1.21875 -1.9375 C 0.90625 -2.601562 0.75 -3.382812 0.75 -4.28125 C 0.75 -5.175781 0.90625 -5.945312 1.21875 -6.59375 C 1.539062 -7.25 2 -7.753906 2.59375 -8.109375 C 3.1875 -8.460938 3.890625 -8.640625 4.703125 -8.640625 C 5.296875 -8.640625 5.835938 -8.546875 6.328125 -8.359375 C 6.816406 -8.179688 7.242188 -7.914062 7.609375 -7.5625 L 7.234375 -6.796875 C 6.828125 -7.148438 6.425781 -7.398438 6.03125 -7.546875 C 5.632812 -7.703125 5.195312 -7.78125 4.71875 -7.78125 C 3.78125 -7.78125 3.050781 -7.476562 2.53125 -6.875 C 2.019531 -6.269531 1.765625 -5.40625 1.765625 -4.28125 C 1.765625 -3.15625 2.019531 -2.285156 2.53125 -1.671875 C 3.039062 -1.054688 3.769531 -0.75 4.71875 -0.75 C 5.195312 -0.75 5.632812 -0.828125 6.03125 -0.984375 C 6.425781 -1.140625 6.828125 -1.390625 7.234375 -1.734375 L 7.609375 -0.984375 C 7.242188 -0.617188 6.816406 -0.347656 6.328125 -0.171875 C 5.835938 0.00390625 5.296875 0.09375 4.703125 0.09375 Z M 4.703125 0.09375 "/></g></g></g><g fill="#d4af37" fill-opacity="1"><g transform="translate(154.70301, 219.329664)"><g><path d="M 7.15625 -8.546875 L 8.140625 -8.546875 L 8.140625 0 L 7.15625 0 L 7.15625 -3.921875 L 2.03125 -3.921875 L 2.03125 0 L 1.0625 0 L 1.0625 -8.546875 L 2.03125 -8.546875 L 2.03125 -4.75 L 7.15625 -4.75 Z M 7.15625 -8.546875 "/></g></g></g><g fill="#d4af37" fill-opacity="1"><g transform="translate(173.495203, 219.329664)"><g><path d="M 6.96875 -8.546875 L 7.90625 -8.546875 L 7.90625 0 L 7.140625 0 L 1.984375 -6.875 L 1.984375 0 L 1.0625 0 L 1.0625 -8.546875 L 1.8125 -8.546875 L 6.96875 -1.671875 Z M 6.96875 -8.546875 "/></g></g></g><g fill="#d4af37" fill-opacity="1"><g transform="translate(192.047391, 219.329664)"><g><path d="M 4.625 0.09375 C 3.832031 0.09375 3.144531 -0.078125 2.5625 -0.421875 C 1.976562 -0.773438 1.53125 -1.28125 1.21875 -1.9375 C 0.90625 -2.601562 0.75 -3.378906 0.75 -4.265625 C 0.75 -5.160156 0.90625 -5.9375 1.21875 -6.59375 C 1.53125 -7.25 1.976562 -7.753906 2.5625 -8.109375 C 3.144531 -8.460938 3.832031 -8.640625 4.625 -8.640625 C 5.425781 -8.640625 6.117188 -8.460938 6.703125 -8.109375 C 7.285156 -7.753906 7.734375 -7.25 8.046875 -6.59375 C 8.359375 -5.9375 8.515625 -5.164062 8.515625 -4.28125 C 8.515625 -3.382812 8.359375 -2.609375 8.046875 -1.953125 C 7.734375 -1.296875 7.28125 -0.789062 6.6875 -0.4375 C 6.101562 -0.0820312 5.414062 0.09375 4.625 0.09375 Z M 4.625 -0.75 C 5.53125 -0.75 6.234375 -1.054688 6.734375 -1.671875 C 7.242188 -2.285156 7.5 -3.15625 7.5 -4.28125 C 7.5 -5.40625 7.25 -6.269531 6.75 -6.875 C 6.25 -7.488281 5.539062 -7.796875 4.625 -7.796875 C 3.71875 -7.796875 3.007812 -7.488281 2.5 -6.875 C 2 -6.269531 1.75 -5.40625 1.75 -4.28125 C 1.75 -3.15625 2 -2.285156 2.5 -1.671875 C 3.007812 -1.054688 3.71875 -0.75 4.625 -0.75 Z M 4.625 -0.75 "/></g></g></g><g fill="#d4af37" fill-opacity="1"><g transform="translate(210.911578, 219.329664)"><g><path d="M 1.0625 0 L 1.0625 -8.546875 L 2.046875 -8.546875 L 2.046875 -0.84375 L 6.328125 -0.84375 L 6.328125 0 Z M 1.0625 0 "/></g></g></g><g fill="#d4af37" fill-opacity="1"><g transform="translate(227.051763, 219.329664)"><g><path d="M 4.625 0.09375 C 3.832031 0.09375 3.144531 -0.078125 2.5625 -0.421875 C 1.976562 -0.773438 1.53125 -1.28125 1.21875 -1.9375 C 0.90625 -2.601562 0.75 -3.378906 0.75 -4.265625 C 0.75 -5.160156 0.90625 -5.9375 1.21875 -6.59375 C 1.53125 -7.25 1.976562 -7.753906 2.5625 -8.109375 C 3.144531 -8.460938 3.832031 -8.640625 4.625 -8.640625 C 5.425781 -8.640625 6.117188 -8.460938 6.703125 -8.109375 C 7.285156 -7.753906 7.734375 -7.25 8.046875 -6.59375 C 8.359375 -5.9375 8.515625 -5.164062 8.515625 -4.28125 C 8.515625 -3.382812 8.359375 -2.609375 8.046875 -1.953125 C 7.734375 -1.296875 7.28125 -0.789062 6.6875 -0.4375 C 6.101562 -0.0820312 5.414062 0.09375 4.625 0.09375 Z M 4.625 -0.75 C 5.53125 -0.75 6.234375 -1.054688 6.734375 -1.671875 C 7.242188 -2.285156 7.5 -3.15625 7.5 -4.28125 C 7.5 -5.40625 7.25 -6.269531 6.75 -6.875 C 6.25 -7.488281 5.539062 -7.796875 4.625 -7.796875 C 3.71875 -7.796875 3.007812 -7.488281 2.5 -6.875 C 2 -6.269531 1.75 -5.40625 1.75 -4.28125 C 1.75 -3.15625 2 -2.285156 2.5 -1.671875 C 3.007812 -1.054688 3.71875 -0.75 4.625 -0.75 Z M 4.625 -0.75 "/></g></g></g><g fill="#d4af37" fill-opacity="1"><g transform="translate(245.915951, 219.329664)"><g><path d="M 7.8125 -4.453125 L 7.8125 -0.484375 C 7.476562 -0.316406 7.035156 -0.175781 6.484375 -0.0625 C 5.941406 0.0390625 5.394531 0.09375 4.84375 0.09375 C 3.988281 0.09375 3.253906 -0.078125 2.640625 -0.421875 C 2.023438 -0.773438 1.554688 -1.28125 1.234375 -1.9375 C 0.910156 -2.59375 0.75 -3.375 0.75 -4.28125 C 0.75 -5.1875 0.910156 -5.960938 1.234375 -6.609375 C 1.554688 -7.265625 2.019531 -7.765625 2.625 -8.109375 C 3.226562 -8.460938 3.941406 -8.640625 4.765625 -8.640625 C 5.359375 -8.640625 5.90625 -8.546875 6.40625 -8.359375 C 6.90625 -8.179688 7.335938 -7.914062 7.703125 -7.5625 L 7.3125 -6.796875 C 6.90625 -7.148438 6.503906 -7.40625 6.109375 -7.5625 C 5.710938 -7.71875 5.265625 -7.796875 4.765625 -7.796875 C 3.796875 -7.796875 3.050781 -7.492188 2.53125 -6.890625 C 2.019531 -6.285156 1.765625 -5.414062 1.765625 -4.28125 C 1.765625 -3.125 2.023438 -2.242188 2.546875 -1.640625 C 3.078125 -1.035156 3.847656 -0.734375 4.859375 -0.734375 C 5.566406 -0.734375 6.25 -0.84375 6.90625 -1.0625 L 6.90625 -3.671875 L 4.78125 -3.671875 L 4.78125 -4.453125 Z M 7.8125 -4.453125 "/></g></g></g><g fill="#d4af37" fill-opacity="1"><g transform="translate(264.288146, 219.329664)"><g><path d="M 7.484375 -8.546875 L 4.125 -3.453125 L 4.125 0 L 3.140625 0 L 3.140625 -3.46875 L -0.21875 -8.546875 L 0.9375 -8.546875 L 3.640625 -4.34375 L 6.359375 -8.546875 Z M 7.484375 -8.546875 "/></g></g></g></svg>